<?xml version="1.0" standalone="no"?>
<!DOCTYPE svg PUBLIC "-//W3C//DTD SVG 20010904//EN"
 "http://www.w3.org/TR/2001/REC-SVG-20010904/DTD/svg10.dtd">
<svg version="1.0" xmlns="http://www.w3.org/2000/svg"
 width="897.000000pt" height="897.000000pt" viewBox="0 0 897.000000 897.000000"
 preserveAspectRatio="xMidYMid meet">
<metadata>
Created by potrace 1.14, written by Peter Selinger 2001-2017
</metadata>
<g transform="translate(0.000000,897.000000) scale(0.100000,-0.100000)"
fill="#000000" stroke="none">
<path d="M3855 7798 c1 -645 -1 -1180 -3 -1188 -3 -13 -141 -15 -1185 -15
l-1182 0 0 -625 0 -625 1182 0 c1044 0 1182 -2 1185 -15 2 -8 4 -1211 3 -2672
l0 -2658 625 0 625 0 0 2670 c0 2368 2 2670 15 2671 8 1 542 2 1185 3 l1170 1
0 625 0 625 -1180 0 c-649 -1 -1182 2 -1185 6 -3 4 -5 539 -5 1188 l0 1181
-625 0 -625 0 0 -1172z"/>
</g>
</svg>
